<?xml version="1.0" encoding="UTF-8"?>
<svg xmlns="http://www.w3.org/2000/svg" xmlns:xlink="http://www.w3.org/1999/xlink" viewBox="0 0 144 144" width="144px" height="144px">
<g id="surface78431939">
<path style=" stroke:none;fill-rule:nonzero;fill:rgb(100%,26.274511%,0%);fill-opacity:1;" d="M 127.25 10.25 L 16.75 10.25 L 26.5 120.75 L 72 133.75 L 117.5 120.75 Z M 127.25 10.25 "/>
<path style=" stroke:none;fill-rule:nonzero;fill:rgb(100%,42.745098%,0%);fill-opacity:1;" d="M 72 20 L 72 123.675781 L 108.398438 113.273438 L 116.523438 20 Z M 72 20 "/>
<path style=" stroke:none;fill-rule:nonzero;fill:rgb(100%,100%,100%);fill-opacity:1;" d="M 72 75.25 L 72 62.25 L 99.949219 62.25 L 97.675781 99.625 L 72 108.074219 L 72 94.425781 L 85.324219 89.875 L 86.300781 75.25 Z M 100.925781 49.25 L 101.898438 36.25 L 72 36.25 L 72 49.25 Z M 100.925781 49.25 "/>
<path style=" stroke:none;fill-rule:nonzero;fill:rgb(93.333334%,93.333334%,93.333334%);fill-opacity:1;" d="M 72 94.425781 L 72 108.074219 L 46.324219 99.625 L 45.023438 81.75 L 58.023438 81.75 L 58.675781 89.875 Z M 56.074219 49.25 L 72 49.25 L 72 36.25 L 42.425781 36.25 L 44.699219 75.25 L 72 75.25 L 72 62.25 L 57.050781 62.25 Z M 56.074219 49.25 "/>
</g>
</svg>
