<?xml version="1.0" encoding="UTF-8"?>
<svg xmlns="http://www.w3.org/2000/svg" xmlns:xlink="http://www.w3.org/1999/xlink" viewBox="0 0 208 208" width="208px" height="208px">
<g id="surface78306825">
<rect x="0" y="0" width="208" height="208" style="fill:rgb(7.058824%,40.392157%,8.627451%);fill-opacity:1;stroke:none;"/>
<path style=" stroke:none;fill-rule:nonzero;fill:rgb(100%,100%,100%);fill-opacity:1;" d="M 117.539062 16 L 16 35.460938 L 16 172.539062 L 117.539062 192 Z M 124.308594 36.308594 L 124.308594 56.402344 L 144.828125 56.402344 L 144.828125 70.152344 L 124.308594 70.152344 L 124.308594 83.691406 L 144.613281 83.691406 L 144.613281 97.230469 L 124.308594 97.230469 L 124.308594 110.769531 L 144.613281 110.769531 L 144.613281 124.308594 L 124.308594 124.308594 L 124.308594 137.84375 L 144.613281 137.84375 L 144.613281 151.382812 L 124.308594 151.382812 L 124.308594 171.691406 L 186.289062 171.691406 C 189.40625 171.691406 192 169.019531 192 165.769531 L 192 42.230469 C 192 38.976562 189.40625 36.308594 186.289062 36.308594 Z M 151.382812 56.613281 L 178.460938 56.613281 L 178.460938 70.152344 L 151.382812 70.152344 Z M 36.941406 69.730469 L 55.558594 69.730469 L 65.5 90.460938 C 66.265625 92.074219 67.007812 93.953125 67.613281 96.171875 C 68.011719 94.824219 68.882812 92.894531 69.941406 90.25 L 80.730469 69.730469 L 97.863281 69.730469 L 77.347656 103.789062 L 98.5 138.480469 L 80.308594 138.480469 L 68.460938 116.058594 C 68.011719 115.238281 67.457031 113.625 66.980469 111.402344 L 66.769531 111.402344 C 66.558594 112.460938 66.109375 114.125 65.289062 116.269531 L 53.441406 138.480469 L 35.039062 138.480469 L 56.828125 104.210938 Z M 151.382812 83.691406 L 178.460938 83.691406 L 178.460938 97.230469 L 151.382812 97.230469 Z M 151.382812 110.769531 L 178.460938 110.769531 L 178.460938 124.308594 L 151.382812 124.308594 Z M 151.382812 137.84375 L 178.460938 137.84375 L 178.460938 151.382812 L 151.382812 151.382812 Z M 151.382812 137.84375 "/>
</g>
</svg>
