<?xml version="1.0" encoding="UTF-8"?>
<svg xmlns="http://www.w3.org/2000/svg" xmlns:xlink="http://www.w3.org/1999/xlink" viewBox="0 0 150 150" width="150px" height="150px">
<g id="surface78318112">
<rect x="0" y="0" width="150" height="150" style="fill:rgb(0%,21.176471%,64.313728%);fill-opacity:1;stroke:none;"/>
<path style=" stroke:none;fill-rule:nonzero;fill:rgb(100%,100%,100%);fill-opacity:1;" d="M 84.148438 15.074219 L 16.949219 27.824219 C 15.816406 28.039062 15 29.070312 15 30.226562 L 15 119.773438 C 15 120.929688 15.816406 121.960938 16.949219 122.175781 L 84.148438 134.925781 C 84.300781 134.953125 84.449219 135 84.601562 135 C 85.152344 135 85.667969 134.832031 86.101562 134.476562 C 86.652344 134.015625 87 133.3125 87 132.601562 L 87 17.398438 C 87 16.6875 86.652344 15.984375 86.101562 15.523438 C 85.546875 15.066406 84.851562 14.945312 84.148438 15.074219 Z M 91.800781 29.398438 L 91.800781 46.199219 L 120.601562 46.199219 L 120.601562 51 L 91.800781 51 L 91.800781 63 L 120.601562 63 L 120.601562 67.800781 L 91.800781 67.800781 L 91.800781 79.800781 L 120.601562 79.800781 L 120.601562 84.601562 L 91.800781 84.601562 L 91.800781 99 L 120.601562 99 L 120.601562 103.800781 L 91.800781 103.800781 L 91.800781 120.601562 L 127.800781 120.601562 C 130.445312 120.601562 132.601562 118.445312 132.601562 115.800781 L 132.601562 34.199219 C 132.601562 31.554688 130.445312 29.398438 127.800781 29.398438 Z M 26.101562 52.574219 L 34.648438 52.574219 L 39.523438 82.425781 C 39.742188 83.691406 39.882812 85.453125 39.976562 87.601562 L 40.125 87.601562 C 40.191406 85.996094 40.472656 84.253906 40.875 82.351562 L 47.175781 52.574219 L 55.574219 52.574219 L 61.273438 82.726562 C 61.480469 83.832031 61.640625 85.414062 61.800781 87.523438 L 61.875 87.523438 C 61.941406 85.875 62.117188 84.1875 62.398438 82.5 L 67.199219 52.574219 L 75.148438 52.574219 L 65.925781 97.425781 L 57.226562 97.425781 L 51.449219 68.699219 C 51.140625 67.199219 50.992188 65.457031 50.925781 63.601562 L 50.851562 63.601562 C 50.699219 65.644531 50.445312 67.378906 50.175781 68.699219 L 44.25 97.425781 L 35.25 97.425781 Z M 26.101562 52.574219 "/>
</g>
</svg>
