<?xml version="1.0" encoding="UTF-8"?>
<svg xmlns="http://www.w3.org/2000/svg" xmlns:xlink="http://www.w3.org/1999/xlink" viewBox="0 0 144 144" width="144px" height="144px">
<g id="surface78368944">
<path style=" stroke:none;fill-rule:nonzero;fill:rgb(47.450981%,83.529413%,89.411765%);fill-opacity:1;" d="M 108 18 L 36 18 C 26.058594 18 18 26.058594 18 36 L 18 108 C 18 117.941406 26.058594 126 36 126 L 108 126 C 117.941406 126 126 117.941406 126 108 L 126 36 C 126 26.058594 117.941406 18 108 18 Z M 108 18 "/>
<path style=" stroke:none;fill-rule:nonzero;fill:rgb(0%,5.098039%,28.627452%);fill-opacity:1;" d="M 108 120 L 36 120 C 29.371094 120 24 114.625 24 108 L 24 36 C 24 29.371094 29.371094 24 36 24 L 108 24 C 114.625 24 120 29.371094 120 36 L 120 108 C 120 114.625 114.625 120 108 120 Z M 108 120 "/>
<path style=" stroke:none;fill-rule:nonzero;fill:rgb(100%,100%,100%);fill-opacity:1;" d="M 43.519531 46.117188 C 43.519531 45.796875 43.753906 45.53125 44.066406 45.496094 C 45.265625 45.363281 48.613281 45.089844 55.757812 45.089844 C 66.523438 45.089844 74.0625 49.359375 74.0625 61.039062 C 74.0625 71.578125 66.886719 77.761719 55.3125 77.761719 C 54.640625 77.761719 53.964844 77.761719 51.664062 77.761719 L 51.664062 95.40625 C 51.664062 95.699219 51.425781 95.941406 51.132812 95.941406 L 44.058594 95.941406 C 43.765625 95.941406 43.523438 95.699219 43.523438 95.40625 L 43.523438 46.117188 Z M 51.664062 70.339844 C 51.664062 70.339844 55.226562 70.363281 56.03125 70.363281 C 62.640625 70.363281 65.644531 66.445312 65.644531 61.195312 C 65.644531 56.28125 62.722656 52.445312 56.617188 52.445312 C 54.097656 52.445312 51.667969 52.589844 51.667969 52.589844 L 51.667969 70.339844 Z M 51.664062 70.339844 "/>
<path style=" stroke:none;fill-rule:nonzero;fill:rgb(100%,100%,100%);fill-opacity:1;" d="M 78.46875 86.910156 C 78.46875 86.625 78.777344 86.449219 79.015625 86.605469 C 80.527344 87.613281 83.59375 89.347656 88.347656 89.347656 C 91.449219 89.347656 93.410156 88.011719 93.410156 85.832031 C 93.410156 83.421875 90.097656 81.671875 87.359375 80.1875 C 84.640625 78.710938 78.527344 76.339844 78.527344 68.707031 C 78.527344 61.945312 83.933594 57.863281 91.296875 57.863281 C 94.117188 57.863281 97.226562 58.300781 99.328125 59.066406 C 99.671875 59.191406 99.882812 59.527344 99.882812 59.898438 L 99.882812 66.769531 C 99.882812 67.054688 99.585938 67.234375 99.347656 67.078125 C 98.03125 66.21875 95.125 64.902344 91.132812 64.902344 C 87.804688 64.902344 86.339844 66.523438 86.339844 68.171875 C 86.339844 71.0625 90.191406 72.273438 93.648438 74.300781 C 99.039062 77.300781 101.539062 80.230469 101.539062 84.824219 C 101.539062 92.335938 95.9375 96.554688 88.351562 96.554688 C 84.433594 96.554688 80.746094 95.699219 78.863281 94.554688 C 78.601562 94.394531 78.472656 94.105469 78.472656 93.800781 Z M 78.46875 86.910156 "/>
</g>
</svg>
