<?xml version="1.0" encoding="UTF-8"?>
<svg xmlns="http://www.w3.org/2000/svg" xmlns:xlink="http://www.w3.org/1999/xlink" viewBox="0 0 150 150" width="150px" height="150px">
<g id="surface78294603">
<rect x="0" y="0" width="150" height="150" style="fill:rgb(88.235295%,12.54902%,0%);fill-opacity:1;stroke:none;"/>
<path style=" stroke:none;fill-rule:nonzero;fill:rgb(100%,100%,100%);fill-opacity:1;" d="M 84.148438 15.074219 L 16.949219 27.824219 C 15.816406 28.039062 15 29.070312 15 30.226562 L 15 119.773438 C 15 120.929688 15.816406 121.960938 16.949219 122.175781 L 84.148438 134.925781 C 84.300781 134.953125 84.449219 135 84.601562 135 C 85.152344 135 85.667969 134.832031 86.101562 134.476562 C 86.652344 134.015625 87 133.3125 87 132.601562 L 87 17.398438 C 87 16.6875 86.652344 15.984375 86.101562 15.523438 C 85.546875 15.066406 84.851562 14.945312 84.148438 15.074219 Z M 91.800781 29.398438 L 91.800781 51.148438 C 92.585938 51.039062 93.382812 51 94.199219 51 L 94.199219 67.800781 L 111 67.800781 C 111 77.082031 103.480469 84.601562 94.199219 84.601562 C 93.382812 84.601562 92.585938 84.5625 91.800781 84.449219 L 91.800781 99 L 111 99 L 111 103.800781 L 91.800781 103.800781 L 91.800781 120.601562 L 127.800781 120.601562 C 130.445312 120.601562 132.601562 118.445312 132.601562 115.800781 L 132.601562 34.199219 C 132.601562 31.554688 130.445312 29.398438 127.800781 29.398438 Z M 101.398438 43.800781 C 110.679688 43.800781 118.199219 51.320312 118.199219 60.601562 L 101.398438 60.601562 Z M 34.574219 52.574219 L 50.398438 52.574219 C 61.714844 52.574219 67.425781 57.355469 67.425781 66.898438 C 67.425781 71.410156 65.792969 75.066406 62.550781 77.851562 C 59.304688 80.632812 54.929688 82.050781 49.5 82.050781 L 44.699219 82.050781 L 44.699219 97.5 L 34.574219 97.5 Z M 44.699219 60.375 L 44.699219 74.324219 L 48.675781 74.324219 C 54.054688 74.324219 56.773438 71.992188 56.773438 67.273438 C 56.773438 62.664062 54.054688 60.375 48.675781 60.375 Z M 44.699219 60.375 "/>
</g>
</svg>
